# xmcd
#
# Track frame offsets:
#	150
#	12376
#	30370
#	47715
#	63066
#	82052
#	96903
#	112689
#	128802
#	147849
#	165519
#	179900
#	197370
#	213569
#	231062
#	244280
#	258678
#	272813
#
# Disc length: 3879 seconds
#
# Revision: 0
# Processed by: cddbd v1.5.1PL0 Copyright (c) Steve Scherf et al.
# Submitted via: audiograbber 1.83.01
#
DISCID=fb0f2512
DTITLE=2001-11 Country Radio - 2001-11 Country Radio
DYEAR=2001
DGENRE=Country
TTITLE0=Alan Jackson - It's Alright To Be A Red Neck
TTITLE1=Martina Mcbride - Blessed
TTITLE2=Brooks and Dunn - The Long Goodbye
TTITLE3=Trisha Yearwood Feat. Don Henley - Inside Out
TTITLE4=Deryl Dodd - One Ride In Vegas
TTITLE5=Lee Ann Womack - Does My Ring Burn Your Finger
TTITLE6=Phil Vassar - That's When I Love You
TTITLE7=Tammy Cochran - I Cry
TTITLE8=Mark Mcguinn - She Doesn't Dance
TTITLE9=Daisy Dern - Getting Back To You
TTITLE10=The Great Divide - Wild Horses
TTITLE11=Kevin Sharp - Beautiful People
TTITLE12=Kenny Rogers - Homeland
TTITLE13=Kristin Garner - Singing To The Scarecrow
TTITLE14=Emerson Drive - I Should Be Sleeping
TTITLE15=Ronnie Mcdowell - Don't Mess With America
TTITLE16=The Tractors - Fast Girl
TTITLE17=Darryl Purpose - Late For Dinner
EXTD=
EXTT0=
EXTT1=
EXTT2=
EXTT3=
EXTT4=
EXTT5=
EXTT6=
EXTT7=
EXTT8=
EXTT9=
EXTT10=
EXTT11=
EXTT12=
EXTT13=
EXTT14=
EXTT15=
EXTT16=
EXTT17=
PLAYORDER=
